<svg xmlns="http://www.w3.org/2000/svg" viewBox="0 0 60 75" x="0px" y="0px"><path fill="#0055ff" d="M52.885,12.88a2.994,2.994,0,0,0-1.07-2.133A31.042,31.042,0,0,0,32,3.6a30.694,30.694,0,0,0-6.331.668A3.007,3.007,0,0,0,21.86,2.137,33.211,33.211,0,0,0,.15,23.921a3,3,0,0,0,2.1,3.841l11.136,2.975a18.794,18.794,0,0,0,4.51,16.429,3.013,3.013,0,0,0-.842,2.239,2.932,2.932,0,0,0,1.077,2.128,21.977,21.977,0,0,0,18.825,4.336,3.018,3.018,0,0,0,1.514,1.807A2.983,2.983,0,0,0,39.819,58a2.931,2.931,0,0,0,1.041-.189A24.894,24.894,0,0,0,55.992,41.464a2.966,2.966,0,0,0,.674.082,3.035,3.035,0,0,0,1.668-.5,2.984,2.984,0,0,0,1.3-1.991A28.011,28.011,0,0,0,60,34.505a27.558,27.558,0,0,0-7.914-19.427A3.009,3.009,0,0,0,52.885,12.88Zm-2.349-.6a.976.976,0,0,1,.352.7.99.99,0,0,1-.282.752L35.322,29.608A5.967,5.967,0,0,0,32,28.6c-.136,0-.269.011-.4.02L26.145,6.206A28.734,28.734,0,0,1,32,5.6,29.031,29.031,0,0,1,50.536,12.284ZM32,38.6a4,4,0,1,1,4-4A4,4,0,0,1,32,38.6ZM2.124,25.336a.983.983,0,0,1-.073-.79,31.229,31.229,0,0,1,20.4-20.5,1.006,1.006,0,0,1,.8.086.987.987,0,0,1,.48.634L29.65,29.081a6.027,6.027,0,0,0-3.084,2.992l-11.738-3.02L2.755,25.827A.988.988,0,0,1,2.124,25.336Zm13.2,5.908L26.03,34c-.019.2-.03.4-.03.6a5.962,5.962,0,0,0,1.068,3.409l-7.763,7.74A16.826,16.826,0,0,1,15.32,31.244ZM19.389,49.98a.921.921,0,0,1-.34-.677,1.015,1.015,0,0,1,.3-.771l9.12-9.093A5.956,5.956,0,0,0,32,40.6a5.871,5.871,0,0,0,.653-.038l3.753,13.382A20,20,0,0,1,19.389,49.98Zm20.766,5.958a.965.965,0,0,1-.783-.046,1.016,1.016,0,0,1-.52-.634L34.575,40.012a6.025,6.025,0,0,0,2.964-3.11L54.05,40.989A22.9,22.9,0,0,1,40.155,55.938Zm17.5-17.209a.957.957,0,0,1-.425.648,1.032,1.032,0,0,1-.8.141L37.982,34.951c.007-.116.018-.232.018-.35a5.966,5.966,0,0,0-1.225-3.619L50.7,16.523A25.582,25.582,0,0,1,58,34.505,26,26,0,0,1,57.657,38.729Z"/></svg>